<svg id="Capa_1" data-name="Capa 1" xmlns="http://www.w3.org/2000/svg" viewBox="0 0 42.12 53.7"><title>notification</title><g id="Bell"><path d="M42.61,41.71c-2.9-2.8-5-10.22-5-19,0-6.61-3.81-12.2-9.1-14.26A4.68,4.68,0,0,0,24.1,4.3a4.68,4.68,0,0,0-4.44,4.2c-5.29,2.05-9.1,7.65-9.1,14.26,0,8.72-2.07,16.15-5,19A8.66,8.66,0,0,0,3,47.93a4.79,4.79,0,0,0,4.51,5h12a4.79,4.79,0,0,0,4.51,5,4.79,4.79,0,0,0,4.51-5h12a4.79,4.79,0,0,0,4.51-5A8.65,8.65,0,0,0,42.61,41.71ZM7.56,47.93a3.36,3.36,0,0,1,1-2.41c4-3.89,6.53-12.61,6.53-22.76,0-5.55,4-10.07,9-10.07s9,4.52,9,10.07c0,10.15,2.5,18.87,6.53,22.76a3.36,3.36,0,0,1,1,2.41Z" transform="translate(-3.04 -4.3)" style="fill:#f04d4e"/></g></svg>